<?xml version="1.0" encoding="utf-8"?>
<!-- Generator: Adobe Illustrator 18.1.1, SVG Export Plug-In . SVG Version: 6.00 Build 0)  -->
<!DOCTYPE svg PUBLIC "-//W3C//DTD SVG 1.1//EN" "http://www.w3.org/Graphics/SVG/1.1/DTD/svg11.dtd">
<svg version="1.1" id="Layer_1" xmlns="http://www.w3.org/2000/svg" xmlns:xlink="http://www.w3.org/1999/xlink" x="0px" y="0px"
	 viewBox="0 0 154.624 154.599" enable-background="new 0 0 154.624 154.599" xml:space="preserve">
<rect x="0" y="0" fill="#AC2EFF" width="154.624" height="154.599"/>
<path fill="#FFFFFF" d="M112.469,92.96l-1.925-3.35L77.456,32.025L64.387,54.769l-1.915,3.333l-32.993,57.419h26.136h3.889h65.929
	L112.469,92.96z M106.442,91.34l-0.024,0.01l-25.433,10.833L96.81,84.069l9.578,7.23L106.442,91.34z M77.456,40.947l22.152,38.551
	l0.475,0.827l1.409,2.452l-2.14-1.615l-2.342-1.768L67.962,57.468L77.456,40.947z M66.024,60.841l0.001-0.009l0.003,0.002
	l22.296,16.829L64.58,72.936L66.024,60.841z M94.16,82.149l-19.976,22.865l-9.909-28.816L94.16,82.149z M56.145,111.076H37.159
	l21.687-37.742l0.794-1.382l1.487-2.588l-0.336,2.817l-0.346,2.901L56.145,111.076z M60.02,111.113l0.004-0.038l3.298-27.62
	l7.873,22.897l-11.088,4.723L60.02,111.113z M71.573,111.076h-1.634l2.514-1.071l2.706-1.153l33.192-14.138l9.402,16.362H72.821
	H71.573z"/>
</svg>
